<?xml version="1.0" encoding="utf-8"?>
<!-- Generator: Adobe Illustrator 24.3.0, SVG Export Plug-In . SVG Version: 6.00 Build 0)  -->
<svg version="1.1" id="Layer_1" xmlns="http://www.w3.org/2000/svg" xmlns:xlink="http://www.w3.org/1999/xlink" x="0px" y="0px"
	 viewBox="0 0 60 60" style="enable-background:new 0 0 60 60;" xml:space="preserve">
<style type="text/css">
	.st0{fill:#FFFFFF;}
</style>
<rect x="1" y="1" width="58" height="58"/>
<path class="st0" d="M21.9,45.2c2.5-2.8,3.8-6.5,3.8-10.5V10h-1.1v24.7c0,3.7-1.3,7.2-3.5,9.7c-2.6,2.9-6.2,4.4-10.6,4.4h-0.2V50
	h0.2C15.1,50,19.1,48.3,21.9,45.2z"/>
<polygon class="st0" points="50,32.6 28.1,32.6 28.1,12.8 27,12.8 27,34.4 50,34.4 "/>
<path class="st0" d="M20.6,41.8c2.5-2.8,3.8-6.5,3.8-10.5V6.6h-1.1v24.7c0,3.7-1.3,7.2-3.5,9.7c-2.6,2.9-6.2,4.4-10.6,4.4H9v1.2h0.2
	C13.8,46.6,17.8,44.9,20.6,41.8z"/>
<polygon class="st0" points="52.2,29.5 30.3,29.5 30.3,9.8 29.2,9.8 29.2,31.4 52.2,31.4 "/>
</svg>
